<?xml version="1.0" encoding="UTF-8"?>
<svg xmlns="http://www.w3.org/2000/svg" fill="none" viewBox="0 0 72 40" className="absolute w-14 group-hover:opacity-0">
  <path fill="#1f2233" stroke="#1f2233" stroke-width="4" fill-rule="evenodd" d="M71.356 13.306c-.242-.543-2.15-2.475-4.664-4.917-3.936-3.822-4.62-4.695-5.042-4.664-.424.03-.907.857-2.143 2.143-1.225 1.274-1.996 2.06-2.274 2.326-.705.672-.707.61-1.291 0-.166-.174-1.903-2.029-3.242-3.46-1.523-1.631-2.669-2.861-2.9-3.027-.432-.309-.7-.274-.957.037a92 92 0 0 1-2.698 3.115c-.965 1.073-2.367 2.581-2.465 2.69-.242.273-.353.29-.686-.042-.333-.333-5.81-6.45-6.413-7.054s-.558-.604-1.162 0-6.08 6.721-6.413 7.054c-.333.331-.444.314-.686.043-.097-.11-1.5-1.618-2.465-2.69a92 92 0 0 1-2.698-3.116c-.257-.311-.524-.346-.958-.037-.23.166-1.376 1.396-2.899 3.026a1255 1255 0 0 1-3.242 3.46c-.584.611-.586.673-1.29 0-.28-.265-1.05-1.05-2.275-2.325-1.236-1.286-1.72-2.113-2.142-2.143-.423-.03-1.107.842-5.043 4.664C2.794 10.831.887 12.763.645 13.306c-.241.542-.122 1.52-.064 1.93.241.508 1.717 4.57 3.236 8.664 2.041 5.5 4.319 11.663 4.496 12.035.333.695.972 1.934 1.533 2.335.634.453 1.585.861 2.34.89.25.01 5.527.052 12.49.014 10.8-.06 11.848-.06 22.648 0 6.963.04 12.24-.004 12.49-.014.755-.03 1.706-.437 2.34-.89.56-.4 1.2-1.64 1.532-2.335.178-.372 2.456-6.534 4.497-12.035 1.519-4.095 2.995-8.155 3.235-8.664.058-.41.178-1.388-.062-1.93m-6.051 13.112c-1.287 3.597-3.402 9.265-3.555 9.516-.422.695-1.12 1.26-1.936 1.29-.27.01-8.58.036-15.56.036H27.747c-6.98 0-15.29-.026-15.56-.036-.816-.03-1.514-.595-1.936-1.29-.153-.25-2.268-5.92-3.555-9.516-3.624-10.133-4.204-11.406-4.16-12.103.047-.739 1.273-1.823 4.286-4.791 1.782-1.756 3.232-3.265 3.429-3.265.166 0 .403.27 1.235 1.122 1.28 1.306 2.98 3.062 3.282 3.394.303.331.867.392 1.291 0 .22-.205 1.199-1.235 3.116-3.394 2.114-2.38 2.78-3.048 3.025-3.278.513-.483.34-.387.883.126.25.236 1.285 1.384 2.395 2.647 1.304 1.486 2.497 2.882 2.647 3.026.349.334.801.332 1.134 0 .333-.331 5.732-6.597 6.177-7.06q.567-.588 1.134 0c.445.463 5.84 6.729 6.173 7.06.333.332.785.334 1.134 0 .15-.144 1.343-1.54 2.647-3.026 1.11-1.263 2.146-2.411 2.395-2.647.544-.513.37-.61.883-.126.245.23.911.897 3.025 3.278 1.917 2.16 2.895 3.19 3.116 3.394.422.392.988.331 1.29 0 .303-.332 2.004-2.088 3.283-3.394.832-.85 1.069-1.122 1.235-1.122.197 0 1.647 1.509 3.429 3.265 3.013 2.968 4.24 4.052 4.286 4.79.044.698-.536 1.971-4.16 12.104M.569 15.291c.057.214.043.152.012-.056-.039-.083-.045-.07-.012.056m70.85-.055c-.03.207-.043.269.012.056.033-.127.027-.14-.013-.056" clip-rule="evenodd"></path></svg>
